<?xml version="1.0" encoding="UTF-8"?>
<!DOCTYPE svg PUBLIC "-//W3C//DTD SVG 1.1//EN" "http://www.w3.org/Graphics/SVG/1.1/DTD/svg11.dtd">
<!-- Creator: CorelDRAW (OEM Version) -->
<svg xmlns="http://www.w3.org/2000/svg" xml:space="preserve" width="3.98069in" height="2.83591in" version="1.1" style="shape-rendering:geometricPrecision; text-rendering:geometricPrecision; image-rendering:optimizeQuality; fill-rule:evenodd; clip-rule:evenodd"
viewBox="0 0 4116.66 2932.78"
 xmlns:xlink="http://www.w3.org/1999/xlink"
 xmlns:xodm="http://www.corel.com/coreldraw/odm/2003">
 <defs>
  <style type="text/css">
   <![CDATA[
    .fil0 {fill:#F8430A;fill-rule:nonzero}
    .fil1 {fill:#FF5906;fill-rule:nonzero}
   ]]>
  </style>
 </defs>
 <g id="Layer_x0020_1">
  <metadata id="CorelCorpID_0Corel-Layer"/>
  <g id="_2597074160560">
   <path class="fil0" d="M1772.5 2670.54c-1.27,-7.98 -3.55,-14.76 -6.84,-20.33 -4.56,-7.48 -10.26,-11.21 -17.1,-11.21l-15.96 0 0 113.45 16.92 0 0 4.56 -54.35 0 0 -4.56 16.72 0 0 -113.45 -15.96 0c-6.84,0 -12.54,3.74 -17.1,11.21 -3.29,5.57 -5.57,12.35 -6.84,20.33l-5.7 0 3.04 -32.3c0.25,-2.53 1.84,-3.8 4.75,-3.8l96.53 0c2.92,0 4.5,1.27 4.75,3.8l3.04 32.3 -5.89 0 0 0z"/>
   <polygon class="fil0" points="1858.67,2752.44 1875.58,2752.44 1875.58,2694.29 1825.41,2694.29 1825.41,2752.44 1842.33,2752.44 1842.33,2757 1787.79,2757 1787.79,2752.44 1804.7,2752.44 1804.7,2638.99 1787.79,2638.99 1787.79,2634.44 1842.33,2634.44 1842.33,2638.99 1825.41,2638.99 1825.41,2689.54 1875.58,2689.54 1875.58,2638.99 1858.67,2638.99 1858.67,2634.44 1913.01,2634.44 1913.01,2638.99 1896.29,2638.99 1896.29,2752.44 1913.01,2752.44 1913.01,2757 1858.67,2757 "/>
   <path class="fil0" d="M2021.4 2750.35c0,4.43 -2.15,6.65 -6.46,6.65l-92.73 0 0 -4.56 16.53 0 0 -113.45 -16.9 0 0 -4.56 88.36 0c3.93,0 5.89,1.71 5.89,5.13l0 27.36c0,2.15 -0.76,3.23 -2.28,3.23 -1.52,0 -2.35,-1.14 -2.47,-3.42 -0.38,-6.84 -2.15,-12.8 -5.32,-17.87 -3.93,-6.58 -9.82,-9.88 -17.67,-9.88l-28.89 0 0 51.12 14.63 0c4.82,0 8.24,-1.58 10.26,-4.75 0.51,-0.76 1.08,-2.06 1.71,-3.89 0.64,-1.84 1.27,-4.21 1.91,-7.13 0.63,-2.15 1.39,-3.23 2.28,-3.23 1.4,0 2.09,1.01 2.09,3.04l0 36.48c0,2.15 -0.7,3.23 -2.09,3.23 -0.88,0 -2.02,-2.22 -3.42,-6.65 -0.5,-1.4 -0.95,-2.79 -1.33,-4.18 -0.38,-1.39 -0.82,-2.78 -1.33,-4.18 -1.9,-2.79 -5.26,-4.18 -10.07,-4.18l-14.63 0 0 57.77 30.6 0c8.23,0 14.32,-2.72 18.24,-8.17 2.92,-4.31 5.51,-11.53 7.79,-21.66 0.63,-2.91 1.64,-4.37 3.04,-4.37 1.52,0 2.28,1.71 2.28,5.13l0 26.99 0 0z"/>
   <path class="fil0" d="M2075.24 2751.3l66.89 -112.31 -36.29 0c-16.22,0 -24.64,9.44 -25.27,28.31l-4.37 0 0 -32.87 87.22 0 0 5.32 -67.65 112.69 35.91 0c10.01,0 17.3,-3.1 21.86,-9.31 3.8,-5.32 5.95,-13.3 6.46,-23.94l4.75 0 0 37.82 -89.5 0 0 -5.7z"/>
   <path class="fil0" d="M2273.92 2750.35c0,4.43 -2.15,6.65 -6.46,6.65l-92.73 0 0 -4.56 16.53 0 0 -113.45 -16.91 0 0 -4.56 88.36 0c3.93,0 5.89,1.71 5.89,5.13l0 27.36c0,2.15 -0.76,3.23 -2.28,3.23 -1.52,0 -2.35,-1.14 -2.47,-3.42 -0.38,-6.84 -2.15,-12.8 -5.32,-17.87 -3.93,-6.58 -9.82,-9.88 -17.67,-9.88l-28.89 0 0 51.12 14.63 0c4.82,0 8.24,-1.58 10.26,-4.75 0.51,-0.76 1.08,-2.06 1.71,-3.89 0.64,-1.84 1.27,-4.21 1.91,-7.13 0.63,-2.15 1.39,-3.23 2.28,-3.23 1.4,0 2.09,1.01 2.09,3.04l0 36.48c0,2.15 -0.7,3.23 -2.09,3.23 -0.88,0 -2.02,-2.22 -3.42,-6.65 -0.5,-1.4 -0.95,-2.79 -1.33,-4.18 -0.38,-1.39 -0.82,-2.78 -1.33,-4.18 -1.9,-2.79 -5.26,-4.18 -10.07,-4.18l-14.63 0 0 57.77 30.6 0c8.23,0 14.32,-2.72 18.24,-8.17 2.92,-4.31 5.51,-11.53 7.79,-21.66 0.63,-2.91 1.64,-4.37 3.04,-4.37 1.52,0 2.28,1.71 2.28,5.13l0 26.99 0 0z"/>
   <path class="fil0" d="M2386.14 2750.35c0,4.43 -2.15,6.65 -6.46,6.65l-92.73 0 0 -4.56 16.53 0 0 -113.45 -16.91 0 0 -4.56 88.36 0c3.93,0 5.89,1.71 5.89,5.13l0 27.36c0,2.15 -0.76,3.23 -2.28,3.23 -1.52,0 -2.35,-1.14 -2.47,-3.42 -0.38,-6.84 -2.15,-12.8 -5.32,-17.87 -3.93,-6.58 -9.82,-9.88 -17.67,-9.88l-28.89 0 0 51.12 14.63 0c4.82,0 8.24,-1.58 10.26,-4.75 0.51,-0.76 1.08,-2.06 1.71,-3.89 0.64,-1.84 1.27,-4.21 1.91,-7.13 0.63,-2.15 1.39,-3.23 2.28,-3.23 1.4,0 2.09,1.01 2.09,3.04l0 36.48c0,2.15 -0.7,3.23 -2.09,3.23 -0.88,0 -2.02,-2.22 -3.42,-6.65 -0.5,-1.4 -0.95,-2.79 -1.33,-4.18 -0.38,-1.39 -0.82,-2.78 -1.33,-4.18 -1.9,-2.79 -5.26,-4.18 -10.07,-4.18l-14.63 0 0 57.77 30.6 0c8.23,0 14.32,-2.72 18.24,-8.17 2.92,-4.31 5.51,-11.53 7.79,-21.66 0.63,-2.91 1.64,-4.37 3.04,-4.37 1.52,0 2.28,1.71 2.28,5.13l0 26.99 0 0z"/>
   <path class="fil0" d="M2466.42 2752.44l16.15 0 -47.7 -62.52 55.3 -50.93 -15.59 0 0 -4.56 40.29 0 0 4.56 -17.1 0 -45.03 41.43 54.73 72.02 15.96 0 0 4.56 -57.01 0 0 -4.56zm-67.27 0l15.58 0 0 -113.45 -15.58 0 0 -4.56 51.87 0 0 4.56 -15.58 0 0 113.45 15.58 0 0 4.56 -51.87 0 0 -4.56z"/>
   <path class="fil0" d="M3074.39 2666.93c0,2.15 -0.76,3.23 -2.28,3.23 -1.52,0 -2.35,-1.14 -2.47,-3.42 -0.38,-6.84 -2.16,-12.8 -5.32,-17.87 -3.93,-6.58 -9.82,-9.88 -17.67,-9.88l-28.88 0 0 51.12 14.63 0c4.82,0 8.24,-1.58 10.26,-4.75 0.51,-0.76 1.08,-2.06 1.71,-3.89 0.63,-1.84 1.27,-4.21 1.9,-7.13 0.64,-2.15 1.39,-3.23 2.28,-3.23 1.4,0 2.09,1.01 2.09,3.04l0 36.48c0,2.15 -0.7,3.23 -2.09,3.23 -0.89,0 -2.02,-2.22 -3.42,-6.65 -0.51,-1.4 -0.95,-2.79 -1.33,-4.18 -0.38,-1.39 -0.82,-2.78 -1.33,-4.18 -1.9,-2.79 -5.26,-4.18 -10.07,-4.18l-14.63 0 0 57.77 16.91 0 0 4.56 -53.97 0 0 -4.56 16.34 0 0 -113.45 -16.72 0 0 -4.56 88.36 0c3.8,0 5.7,1.71 5.7,5.13l0 27.36 0 0z"/>
   <path class="fil0" d="M3148.98 2752.44l19.76 0 -11.97 -33.06 -38.19 0 -11.78 33.06 22.8 0 0 4.56 -45.23 0 0 -4.56 17.1 0 42.95 -119.71 3.42 0 42.95 119.71 17.29 0 0 4.56 -59.1 0 0 -4.56zm-28.69 -37.62l34.77 0 -17.48 -48.08 -17.3 48.08z"/>
   <path class="fil0" d="M3309.83 2718.05c0,12.29 -4.37,22.43 -13.11,30.41 -8.74,7.98 -19.38,11.97 -31.92,11.97 -11.66,0 -22.36,-3.92 -32.12,-11.78l-6.46 8.55c-1.14,1.52 -2.21,2.28 -3.23,2.28 -1.78,0 -2.66,-1.08 -2.66,-3.23l0 -32.3c0,-2.15 0.76,-3.23 2.28,-3.23 1.39,0 2.41,0.95 3.04,2.85 2.41,9.38 7.34,17.04 14.82,22.99 7.47,5.95 15.96,8.93 25.46,8.93 8.11,0 15.33,-2.41 21.66,-7.22 6.46,-5.32 9.69,-12.04 9.69,-20.14 0,-8.48 -3.61,-14.38 -10.83,-17.67 -2.66,-1.14 -5.42,-2.22 -8.27,-3.23 -2.85,-1.01 -5.79,-1.96 -8.84,-2.85 -9.5,-2.79 -15.96,-4.69 -19.38,-5.7 -17.86,-5.44 -26.79,-15.58 -26.79,-30.4 0,-11.15 4.24,-20.02 12.73,-26.6 7.73,-6.21 17.29,-9.31 28.69,-9.31 9.38,0 18.75,2.41 28.13,7.22l5.13 -6.08c0.89,-1.27 1.84,-1.9 2.85,-1.9 1.39,0 2.09,0.89 2.09,2.66l0 32.12c0,1.78 -0.76,2.66 -2.28,2.66 -1.64,0 -2.53,-0.82 -2.66,-2.47 -1.27,-9.12 -4.81,-16.28 -10.64,-21.47 -5.83,-5.19 -13.36,-7.79 -22.61,-7.79 -7.35,0 -13.62,1.65 -18.81,4.94 -6.08,4.05 -9.12,9.5 -9.12,16.34 0,7.98 3.93,13.43 11.78,16.34 1.64,0.63 5.32,1.74 11.02,3.33 5.7,1.58 13.68,3.77 23.94,6.56 17.61,4.69 26.42,15.77 26.42,33.25z"/>
   <polygon class="fil0" points="3392.59,2752.44 3409.5,2752.44 3409.5,2694.29 3359.33,2694.29 3359.33,2752.44 3376.25,2752.44 3376.25,2757 3321.71,2757 3321.71,2752.44 3338.62,2752.44 3338.62,2638.99 3321.71,2638.99 3321.71,2634.44 3376.25,2634.44 3376.25,2638.99 3359.33,2638.99 3359.33,2689.54 3409.5,2689.54 3409.5,2638.99 3392.59,2638.99 3392.59,2634.44 3446.93,2634.44 3446.93,2638.99 3430.21,2638.99 3430.21,2752.44 3446.93,2752.44 3446.93,2757 3392.59,2757 "/>
   <polygon class="fil0" points="3457.84,2752.44 3474.57,2752.44 3474.57,2638.99 3457.84,2638.99 3457.84,2634.44 3512.19,2634.44 3512.19,2638.99 3495.28,2638.99 3495.28,2752.44 3512.19,2752.44 3512.19,2757 3457.84,2757 "/>
   <path class="fil0" d="M3649.71 2696.19c0,16.97 -6.08,31.92 -18.24,44.85 -12.04,12.92 -26.48,19.38 -43.32,19.38 -16.6,0 -31.1,-6.59 -43.52,-19.76 -11.91,-12.67 -17.86,-27.49 -17.86,-44.46 0,-16.98 6.02,-31.86 18.05,-44.66 12.04,-12.8 26.48,-19.19 43.33,-19.19 16.85,0 31.29,6.4 43.32,19.19 12.16,12.8 18.24,27.68 18.24,44.66zm-25.65 -8.93c0,-15.59 -2.09,-27.18 -6.27,-34.77 -5.7,-10.14 -15.58,-15.21 -29.64,-15.21 -13.81,0 -23.57,5.13 -29.27,15.39 -4.3,7.73 -6.46,19.26 -6.46,34.59l0 18.05c0,33.45 11.91,50.17 35.72,50.17 23.94,0 35.91,-16.72 35.91,-50.17l0 -18.05z"/>
   <polygon class="fil0" points="3763.42,2758.52 3755.44,2758.52 3680.95,2646.22 3680.95,2752.44 3697.86,2752.44 3697.86,2757 3659.29,2757 3659.29,2752.44 3676.2,2752.44 3676.2,2638.99 3659.29,2638.99 3659.29,2634.44 3699.19,2634.44 3758.67,2723.75 3758.67,2638.99 3741.76,2638.99 3741.76,2634.44 3780.33,2634.44 3780.33,2638.99 3763.42,2638.99 "/>
   <path class="fil0" d="M2357.5 2928.6c0,1.4 -0.7,2.09 -2.09,2.09 -0.76,0 -1.52,-0.38 -2.28,-1.14l-9.88 -9.88c-8.99,8.74 -19.89,13.11 -32.68,13.11 -16.34,0 -30.53,-6.77 -42.57,-20.33 -11.66,-13.18 -17.48,-28 -17.48,-44.47 0,-16.85 5.96,-31.61 17.87,-44.28 11.91,-12.67 26.29,-19 43.13,-19 12.04,0 22.3,3.1 30.78,9.31l7.03 -6.65c1.27,-1.14 2.35,-1.71 3.23,-1.71 1.52,0 2.28,1.21 2.28,3.61l0 29.27c0,2.03 -0.57,3.04 -1.71,3.04 -0.88,0 -1.51,-0.51 -1.9,-1.52l-0.38 -0.95c-7.85,-19.64 -20.96,-29.46 -39.33,-29.46 -23.44,0 -35.15,16.22 -35.15,48.65l0 20.14c0,32.94 11.4,49.41 34.2,49.41 17.61,0 31.73,-11.4 42.38,-34.2 0.76,-1.64 1.64,-2.47 2.66,-2.47 1.27,0 1.9,0.89 1.9,2.66l0 34.77 0 0z"/>
   <path class="fil0" d="M2493.65 2868.55c0,16.97 -6.08,31.92 -18.24,44.85 -12.04,12.92 -26.48,19.38 -43.32,19.38 -16.6,0 -31.1,-6.59 -43.52,-19.76 -11.91,-12.67 -17.86,-27.49 -17.86,-44.46 0,-16.98 6.02,-31.86 18.05,-44.66 12.04,-12.8 26.48,-19.19 43.33,-19.19 16.85,0 31.29,6.4 43.32,19.19 12.16,12.8 18.24,27.68 18.24,44.66zm-25.65 -8.93c0,-15.59 -2.09,-27.18 -6.27,-34.77 -5.7,-10.14 -15.58,-15.21 -29.64,-15.21 -13.81,0 -23.57,5.13 -29.27,15.39 -4.3,7.73 -6.46,19.26 -6.46,34.59l0 18.05c0,33.45 11.91,50.17 35.72,50.17 23.94,0 35.91,-16.72 35.91,-50.17l0 -18.05z"/>
   <polygon class="fil0" points="2597.67,2924.8 2613.25,2924.8 2613.25,2817.44 2571.06,2929.36 2567.26,2929.36 2525.08,2818.19 2525.08,2924.8 2540.85,2924.8 2540.85,2929.36 2504.74,2929.36 2504.74,2924.8 2520.33,2924.8 2520.33,2811.35 2504.74,2811.35 2504.74,2806.8 2542.37,2806.8 2577.71,2897.63 2611.92,2806.8 2649.54,2806.8 2649.54,2811.35 2633.96,2811.35 2633.96,2924.8 2649.54,2924.8 2649.54,2929.36 2597.67,2929.36 "/>
   <path class="fil0" d="M2756.21 2840.24c0,10.64 -4.06,19.07 -12.16,25.27 -7.35,5.45 -16.53,8.17 -27.55,8.17l-19.38 0 0 51.12 16.72 0 0 4.56 -54.35 0 0 -4.56 16.91 0 0 -113.45 -16.91 0 0 -4.56 55.1 0c11.53,0 21.09,2.66 28.7,7.98 8.62,5.96 12.92,14.45 12.92,25.47zm-19.19 -3.23c0,-17.1 -7.48,-25.65 -22.43,-25.65l-17.48 0 0 57.77 19.38 0c13.68,0 20.52,-8.55 20.52,-25.65l0 -6.46z"/>
   <path class="fil0" d="M2828.71 2924.8l19.76 0 -11.97 -33.06 -38.19 0 -11.78 33.06 22.8 0 0 4.56 -45.23 0 0 -4.56 17.1 0 42.95 -119.71 3.42 0 42.95 119.71 17.29 0 0 4.56 -59.1 0 0 -4.56zm-28.69 -37.62l34.77 0 -17.48 -48.08 -17.3 48.08z"/>
   <polygon class="fil0" points="2998.48,2930.88 2990.5,2930.88 2916.01,2818.58 2916.01,2924.8 2932.92,2924.8 2932.92,2929.36 2894.35,2929.36 2894.35,2924.8 2911.26,2924.8 2911.26,2811.35 2894.35,2811.35 2894.35,2806.8 2934.25,2806.8 2993.73,2896.11 2993.73,2811.35 2976.82,2811.35 2976.82,2806.8 3015.4,2806.8 3015.4,2811.35 2998.48,2811.35 "/>
   <polygon class="fil0" points="3098.33,2864.75 3098.33,2924.8 3116.95,2924.8 3116.95,2929.36 3058.81,2929.36 3058.81,2924.8 3077.62,2924.8 3077.62,2869.31 3039.99,2811.35 3023.84,2811.35 3023.84,2806.8 3080.28,2806.8 3080.28,2811.35 3062.98,2811.35 3094.15,2859.62 3123.03,2811.35 3104.79,2811.35 3104.79,2806.8 3146.41,2806.8 3146.41,2811.35 3130.25,2811.35 "/>
   <polygon class="fil0" points="3163.4,2929.36 3163.4,2906.37 3186.39,2906.37 3186.39,2929.36 "/>
   <path class="fil1" d="M2199.22 2141.36l0 0c2.84,2.43 4.67,5.48 5.48,9.13 0.81,3.66 1.62,7.31 2.44,10.96 0,1.62 -1.12,3.55 -3.35,5.78 -2.23,2.23 -4.16,4.16 -5.78,5.79 -7.31,3.66 -14.41,5.89 -21.31,6.7 -72.26,-2.44 -144.73,-5.08 -217.39,-7.92 -59.68,-2.43 -118.54,-8.83 -176.59,-19.18 -58.06,-10.35 -116.11,-21.82 -174.16,-34.41 -10.56,-2.43 -21.31,-4.67 -32.27,-6.69 -78.35,-17.87 -157.31,-32.48 -236.88,-43.85 -197.3,-26.79 -388.11,-2.24 -572.42,73.68 -177.41,72.26 -347.92,158.73 -511.52,259.42 -31.26,19.89 -62.52,39.58 -93.78,59.07 -10.56,6.49 -21.31,12.78 -32.27,18.88 -32.88,18.67 -67.59,23.14 -104.13,13.4 -10.15,-2.84 -17.46,-8.42 -21.92,-16.75 -4.47,-8.32 -4.47,-16.95 0,-25.88 16.24,-29.63 33.7,-58.25 52.37,-85.86 55.62,-77.94 111.03,-155.69 166.24,-233.23 58.05,-80.38 115.7,-160.76 172.94,-241.14 76.73,-108.8 153.45,-217.8 230.19,-327.01 148.17,-211.51 297.78,-421.79 448.8,-630.87 96.62,-133.16 195.27,-264.9 295.95,-395.21 51.15,-66.98 102.1,-133.97 152.85,-200.95 29.63,-40.19 57.85,-80.79 84.64,-121.79 17.05,-23.14 29.03,-48.72 35.93,-76.73 8.12,-31.26 -2.64,-51.76 -32.27,-61.5 -19.49,-5.28 -39.58,-8.73 -60.29,-10.35 -33.7,-3.65 -67.79,-4.56 -102.3,-2.74 -34.51,1.83 -68.6,3.96 -102.3,6.4 -4.47,0.81 -8.53,1.22 -12.18,1.22 -61.71,5.68 -123.42,11.16 -185.12,16.44 -85.66,6.9 -171.32,13.6 -256.98,20.1 -34.1,5.28 -67.59,4.26 -100.48,-3.05 -4.46,-1.62 -8.73,-3.96 -12.79,-7 -4.06,-3.04 -6.09,-7.82 -6.09,-14.31 0.81,-6.09 3.05,-10.96 6.7,-14.61 3.66,-3.66 8.12,-5.89 13.4,-6.7 11.77,-3.65 24.36,-5.88 37.75,-6.7 183.9,-12.58 366.99,-28.62 549.27,-48.1 67.79,-6.49 135.19,-7.51 202.17,-3.05 44.66,2.03 87.08,12.38 127.27,31.06 45.47,23.14 62.52,59.68 51.15,109.61 -8.93,38.57 -25.17,73.48 -48.71,104.74 -51.56,75.1 -105.15,148.78 -160.77,221.05 -271.19,353.6 -533.64,713.49 -787.37,1079.67 -107.99,154.68 -216.99,308.74 -327.01,462.2 -52.78,75.1 -105.55,149.8 -158.33,224.09 -9.74,13.4 -19.08,27.6 -28.01,42.62 -5.28,6.09 -10.15,12.79 -14.62,20.1 9.74,3.66 17.97,4.16 24.67,1.52 6.69,-2.64 12.68,-6.19 17.96,-10.66 3.66,-2.84 6.9,-5.08 9.74,-6.7 131.94,-72.66 267.74,-137.42 407.39,-194.25 105.15,-43.03 212.42,-71.04 321.83,-84.04 109.41,-12.99 220.34,-13.6 332.79,-1.82 52.78,6.09 105.04,14.11 156.81,24.05 51.76,9.95 103.62,20.61 155.59,31.97 28.41,5.28 57.04,11.16 85.86,17.66 131.94,29.23 264.89,47.5 398.86,54.81 3.66,0 6.9,0 9.74,0 8.12,0 15.73,0.71 22.84,2.13 7.1,1.42 13.7,4.36 19.79,8.83z"/>
   <path class="fil1" d="M2012.83 1600l0 0c8.93,-5.28 17.66,-9.34 26.18,-12.18 8.53,-2.84 14.11,-2.64 16.75,0.61 2.64,3.24 -0.91,10.55 -10.66,21.92 -30.45,34.91 -66.89,66.89 -109.31,95.91 -42.42,29.03 -85.96,53.48 -130.62,73.38 -34.91,15.83 -71.75,28.42 -110.52,37.76 -38.77,9.33 -77.13,11.36 -115.09,6.09 -37.96,-5.28 -72.57,-22.12 -103.83,-50.54 -47.5,-43.85 -67.18,-97.43 -59.07,-160.76 6.9,-50.34 26.49,-93.07 58.76,-128.19 32.27,-35.12 72.97,-58.97 122.09,-71.55 41,-8.93 82.01,-9.94 123.01,-3.04 18.67,2.84 35.72,9.13 51.15,18.88 14.21,10.96 22.03,23.75 23.45,38.37 1.42,14.62 -4.16,28.62 -16.75,42.02 -25.98,23.14 -56.02,36.94 -90.13,41.41 -38.16,6.49 -76.52,10.56 -115.09,12.18 -18.67,0 -31.77,3.86 -39.27,11.57 -7.51,7.71 -11.88,20.91 -13.09,39.58 -6.09,50.75 10.15,92.15 48.72,124.23 23.95,19.08 53.08,27.2 87.39,24.36 34.3,-2.85 70.74,-12.08 109.3,-27.71 38.57,-15.63 76.32,-33.9 113.26,-54.81 36.94,-20.91 70.23,-40.7 99.87,-59.37 12.58,-8.12 23.75,-14.82 33.49,-20.1zm-423.22 -108.39l0 0c0,0.81 -0.61,1.22 -1.83,1.22 -1.62,1.62 -3.75,3.55 -6.4,5.79 -2.64,2.23 -5.07,4.47 -7.31,6.7 -2.23,2.24 -3.35,3.76 -3.35,4.57 0.81,2.84 8.12,3.55 21.92,2.13 13.8,-1.42 29.02,-3.86 45.67,-7.31 16.64,-3.45 30.55,-8.12 41.71,-14 11.16,-5.89 14.51,-12.89 10.05,-21.01 -2.03,-2.44 -4.57,-4.57 -7.61,-6.4 -3.05,-1.83 -6.39,-3.15 -10.04,-3.96 -16.24,0 -31.06,3.15 -44.46,9.44 -13.4,6.29 -26.18,13.9 -38.36,22.83z"/>
   <path class="fil1" d="M2602.27 1600l0 0c8.93,-5.28 17.66,-9.34 26.18,-12.18 8.53,-2.84 14.11,-2.64 16.75,0.61 2.64,3.24 -0.91,10.55 -10.66,21.92 -30.45,34.91 -66.89,66.89 -109.31,95.91 -42.42,29.03 -85.97,53.48 -130.62,73.38 -34.91,15.83 -71.75,28.42 -110.52,37.76 -38.77,9.33 -77.13,11.36 -115.09,6.09 -37.96,-5.28 -72.57,-22.12 -103.83,-50.54 -47.5,-43.85 -67.18,-97.43 -59.07,-160.76 6.9,-50.34 26.49,-93.07 58.76,-128.19 32.27,-35.12 72.97,-58.97 122.09,-71.55 41,-8.93 82.01,-9.94 123.01,-3.04 18.67,2.84 35.72,9.13 51.15,18.88 14.21,10.96 22.03,23.75 23.45,38.37 1.42,14.62 -4.16,28.62 -16.75,42.02 -25.98,23.14 -56.02,36.94 -90.13,41.41 -38.16,6.49 -76.52,10.56 -115.09,12.18 -18.67,0 -31.77,3.86 -39.27,11.57 -7.51,7.71 -11.88,20.91 -13.09,39.58 -6.09,50.75 10.15,92.15 48.72,124.23 23.95,19.08 53.08,27.2 87.39,24.36 34.3,-2.85 70.74,-12.08 109.3,-27.71 38.57,-15.63 76.32,-33.9 113.26,-54.81 36.94,-20.91 70.23,-40.7 99.87,-59.37 12.58,-8.12 23.75,-14.82 33.49,-20.1zm-423.22 -108.39l0 0c0,0.81 -0.61,1.22 -1.83,1.22 -1.62,1.62 -3.75,3.55 -6.4,5.79 -2.64,2.23 -5.07,4.47 -7.31,6.7 -2.23,2.24 -3.35,3.76 -3.35,4.57 0.81,2.84 8.12,3.55 21.92,2.13 13.8,-1.42 29.02,-3.86 45.67,-7.31 16.64,-3.45 30.55,-8.12 41.71,-14 11.16,-5.89 14.51,-12.89 10.05,-21.01 -2.03,-2.44 -4.57,-4.57 -7.61,-6.4 -3.05,-1.83 -6.39,-3.15 -10.04,-3.96 -16.24,0 -31.06,3.15 -44.46,9.44 -13.4,6.29 -26.18,13.9 -38.36,22.83z"/>
   <path class="fil1" d="M4090.53 107.47l0 0c10.56,1.62 18.47,7.51 23.75,17.66 2.84,5.28 3.14,9.95 0.91,14.01 -2.23,4.06 -5.17,8.32 -8.83,12.78 -32.89,30.04 -66.38,60.69 -100.48,91.95 -32.89,31.26 -65.97,62.11 -99.26,92.56 -85.66,80.38 -171.32,160.76 -256.98,241.14 -168.07,156.3 -335.94,313 -503.6,470.11 -85.66,78.76 -166.45,162.79 -242.36,252.11 -26.79,31.26 -51.96,64.34 -75.51,99.25 -15.83,23.14 -28.62,48.11 -38.37,74.9 -17.05,44.66 -6.49,81.8 31.67,111.44 25.17,17.86 51.56,33.49 79.16,46.89 41,20.3 83.02,37.65 126.05,52.06 43.03,14.41 86.27,27.71 129.71,39.89 146.55,43.03 293.11,85.45 439.66,127.27 12.58,3.65 25.17,7.3 37.75,10.96 2.43,0.81 5.48,1.62 9.13,2.43 9.75,2.84 19.08,6.29 28.01,10.35 8.93,4.06 17.05,10.15 24.36,18.27 4.47,5.28 5.79,11.26 3.96,17.96 -1.83,6.7 -5.38,11.27 -10.66,13.7 -18.67,7.31 -36.53,6.91 -53.58,-1.21 -23.14,-11.37 -47.29,-20.2 -72.46,-26.49 -25.17,-6.29 -50.54,-12.08 -76.12,-17.36 -22.33,-4.47 -44.66,-9.95 -66.98,-16.44 -34.91,-8.93 -69.83,-17.46 -104.74,-25.58 -93.78,-23.14 -186.74,-48.91 -278.9,-77.34 -76.73,-23.14 -151.63,-51.35 -224.71,-84.64 -20.7,-9.74 -33.69,-12.58 -38.97,-8.53 -5.28,4.06 -7.91,17.66 -7.91,40.8 -0.81,13.4 -1.22,26.39 -1.22,38.97 0.81,5.28 1.22,10.55 1.22,15.83 0,70.64 0,141.27 0,211.91 0,183.91 -0.41,367.4 -1.22,550.49 0,43.85 -1.83,87.69 -5.48,131.53 -0.81,20.3 -1.82,41.2 -3.04,62.73 0,8.12 -1.32,15.52 -3.96,22.22 -2.64,6.7 -8.02,11.88 -16.14,15.53 -15.83,6.9 -29.53,7.21 -41.11,0.91 -11.57,-6.29 -18.37,-17.36 -20.4,-33.19 -0.81,-14.21 -1.62,-28.01 -2.43,-41.41 -4.47,-66.17 -7.1,-132.75 -7.91,-199.74 0,-244.8 0,-489.6 0,-734.39 0,-90.13 0,-179.85 0,-269.16 0,0 0.4,0 1.22,0 0,-90.13 0,-180.24 0,-270.37 -0.81,-267.13 -0.81,-534.66 0,-802.6 0,-60.08 1.82,-119.56 5.48,-178.42 0.81,-24.76 13.6,-38.16 38.37,-40.19 28.83,-3.66 45.06,8.53 48.72,36.53 4.47,35.73 6.7,71.86 6.7,108.4 0,170.51 0,341.01 0,511.52 0.81,125.04 1.22,249.67 1.22,373.89 0,23.14 1.22,46.28 3.65,69.42 0,1.22 0.91,2.23 2.74,3.05 1.83,0.81 3.65,1.62 5.48,2.43 1.83,0.81 3.15,0.81 3.96,0 2.84,0 5.17,-0.91 7,-2.74 1.83,-1.83 3.55,-3.55 5.18,-5.18 59.68,-70.64 122.4,-137.82 188.16,-201.56 65.77,-63.74 132.14,-126.86 199.13,-189.39 4.46,-3.66 8.93,-7.71 13.4,-12.18 200.14,-186.74 401.09,-372.47 602.86,-557.19 44.66,-41.41 88.91,-82.61 132.75,-123.61 29.23,-25.98 58.66,-51.36 88.3,-76.12 21.52,-17.05 46.08,-23.35 73.68,-18.88z"/>
   <path class="fil1" d="M3884.05 1749.81l0 0c33.28,0 45.06,16.03 35.32,48.1 -4.46,12.58 -9.54,24.36 -15.22,35.32 -5.28,9.74 -12.79,16.14 -22.53,19.18 -9.74,3.05 -20.1,2.33 -31.05,-2.13 -8.93,-3.66 -13.8,-9.95 -14.62,-18.88 -0.81,-14.21 -0.41,-28.82 1.22,-43.84 2.85,-26.8 18.47,-39.38 46.89,-37.75z"/>
  </g>
 </g>
</svg>
